<svg xmlns="http://www.w3.org/2000/svg" xmlns:xlink="http://www.w3.org/1999/xlink" width="500" zoomAndPan="magnify" viewBox="0 0 375 374.999991" height="500" preserveAspectRatio="xMidYMid meet" version="1.0"><defs><clipPath id="6a6a20e5b3"><path d="M 0 18.046875 L 365 18.046875 L 365 346 L 0 346 Z M 0 18.046875 " clip-rule="nonzero"/></clipPath></defs><g clip-path="url(#6a6a20e5b3)"><path fill="#ffffff" d="M 183.53125 18.3125 C 180.019531 18.226562 176.488281 18.378906 172.972656 18.808594 C 163.585938 19.953125 154.292969 22.941406 145.632812 27.945312 C 134.246094 34.523438 126.375 44.304688 120.210938 55.003906 L 119.144531 54.363281 L 9.917969 236.402344 L 10.417969 236.6875 C 4.144531 248.082031 0 260.371094 0 273.058594 C 0 290.757812 5.800781 308.699219 18.238281 322.691406 C 30.675781 336.683594 50.0625 345.875 72.816406 345.875 C 95.570312 345.875 114.953125 336.683594 127.390625 322.691406 C 130.914062 318.730469 132.734375 313.929688 135.214844 309.429688 L 135.710938 309.714844 L 182.039062 232.527344 L 228.1875 309.464844 C 228.210938 309.503906 228.238281 309.535156 228.257812 309.574219 C 248.285156 344.128906 293.0625 356.125 327.667969 336.132812 C 362.316406 316.140625 374.351562 271.292969 354.335938 236.652344 L 354.230469 236.507812 L 245.113281 54.613281 C 245.089844 54.574219 245.0625 54.542969 245.042969 54.503906 C 231.90625 31.835938 208.113281 18.894531 183.53125 18.3125 Z M 184.632812 54.613281 C 186.960938 54.769531 189.253906 55.148438 191.496094 55.75 C 200.457031 58.152344 208.5 64.015625 213.574219 72.816406 L 213.648438 72.957031 L 213.71875 73.0625 L 322.800781 254.855469 C 332.96875 272.457031 327.0625 294.441406 309.464844 304.59375 C 291.863281 314.761719 269.878906 308.859375 259.726562 291.261719 L 259.652344 291.121094 L 150.503906 109.222656 C 140.332031 91.621094 146.222656 69.65625 163.835938 59.484375 C 170.433594 55.667969 177.65625 54.132812 184.632812 54.613281 Z M 118.539062 126.113281 C 118.769531 126.53125 118.726562 127.011719 118.964844 127.425781 L 119.070312 127.570312 L 160.8125 197.148438 L 136.136719 238.285156 C 133.5 233.1875 131.335938 227.863281 127.390625 223.425781 C 115.171875 209.679688 96.152344 200.773438 73.917969 200.457031 Z M 72.816406 236.652344 C 86.46875 236.652344 94.390625 241.113281 100.15625 247.601562 C 105.921875 254.085938 109.222656 263.449219 109.222656 273.058594 C 109.222656 282.664062 105.921875 292.027344 100.15625 298.515625 C 94.390625 305 86.46875 309.464844 72.816406 309.464844 C 59.164062 309.464844 51.238281 305 45.472656 298.515625 C 39.707031 292.027344 36.40625 282.664062 36.40625 273.058594 C 36.40625 263.707031 39.742188 254.738281 45.226562 248.277344 L 45.6875 247.53125 C 51.441406 241.125 59.265625 236.652344 72.816406 236.652344 Z M 72.816406 236.652344 " fill-opacity="1" fill-rule="nonzero"/></g></svg>