<svg xmlns="http://www.w3.org/2000/svg" xmlns:xlink="http://www.w3.org/1999/xlink" width="500" zoomAndPan="magnify" viewBox="0 0 375 374.999991" height="500" preserveAspectRatio="xMidYMid meet" version="1.0"><defs><clipPath id="f15fd08796"><path d="M 0 126.476562 L 375 126.476562 L 375 248.726562 L 0 248.726562 Z M 0 126.476562 " clip-rule="nonzero"/></clipPath></defs><g clip-path="url(#f15fd08796)"><path fill="#38b6ff" d="M 141.101562 158.667969 L 94.726562 130.722656 L 48.347656 158.667969 L 0.941406 130.160156 L 2.8125 127.042969 L 48.28125 154.421875 L 94.699219 126.476562 L 141.074219 154.421875 L 187.507812 126.476562 L 233.886719 154.421875 L 280.328125 126.476562 L 326.707031 154.421875 L 372.175781 127.042969 L 374.058594 130.160156 L 326.746094 158.667969 L 280.367188 130.722656 L 233.988281 158.667969 L 187.609375 130.722656 Z M 280.328125 175.664062 L 326.707031 203.609375 L 374.070312 175.101562 L 372.222656 171.945312 L 326.753906 199.328125 L 280.375 171.382812 L 233.996094 199.328125 L 187.617188 171.382812 L 141.238281 199.328125 L 94.859375 171.382812 L 48.484375 199.328125 L 2.8125 171.945312 L 0.941406 175.101562 L 48.28125 203.609375 L 94.660156 175.664062 L 141.039062 203.609375 L 187.417969 175.664062 L 233.796875 203.609375 Z M 280.328125 220.605469 L 326.707031 248.550781 L 374.070312 220.042969 L 372.1875 216.925781 L 326.71875 244.304688 L 280.339844 216.359375 L 233.960938 244.304688 L 187.582031 216.359375 L 141.203125 244.304688 L 94.824219 216.359375 L 48.445312 244.304688 L 2.976562 216.925781 L 0.941406 220.042969 L 48.28125 248.550781 L 94.660156 220.605469 L 141.039062 248.550781 L 187.417969 220.605469 L 233.796875 248.550781 Z M 280.328125 220.605469 " fill-opacity="1" fill-rule="nonzero"/></g></svg>