<svg xmlns="http://www.w3.org/2000/svg" xmlns:xlink="http://www.w3.org/1999/xlink" width="500" zoomAndPan="magnify" viewBox="0 0 375 374.999991" height="500" preserveAspectRatio="xMidYMid meet" version="1.0"><defs><clipPath id="6b22f11139"><path d="M 53 170.625 L 373 170.625 L 373 175 L 53 175 Z M 53 170.625 " clip-rule="nonzero"/></clipPath><clipPath id="e8909633d0"><path d="M 2 200 L 134 200 L 134 204.375 L 2 204.375 Z M 2 200 " clip-rule="nonzero"/></clipPath></defs><g clip-path="url(#6b22f11139)"><path fill="#38b6ff" d="M 370.898438 174.488281 L 55.621094 174.488281 C 55.367188 174.488281 55.121094 174.441406 54.882812 174.34375 C 54.644531 174.246094 54.4375 174.105469 54.257812 173.921875 C 54.074219 173.742188 53.933594 173.535156 53.835938 173.296875 C 53.738281 173.058594 53.691406 172.8125 53.691406 172.558594 C 53.691406 172.300781 53.738281 172.054688 53.835938 171.816406 C 53.933594 171.582031 54.074219 171.371094 54.257812 171.191406 C 54.4375 171.007812 54.644531 170.871094 54.882812 170.773438 C 55.121094 170.675781 55.367188 170.625 55.621094 170.625 L 370.898438 170.625 C 371.15625 170.625 371.402344 170.675781 371.640625 170.773438 C 371.875 170.871094 372.085938 171.007812 372.265625 171.191406 C 372.445312 171.371094 372.585938 171.582031 372.683594 171.816406 C 372.78125 172.054688 372.832031 172.300781 372.832031 172.558594 C 372.832031 172.8125 372.78125 173.058594 372.683594 173.296875 C 372.585938 173.535156 372.445312 173.742188 372.265625 173.921875 C 372.085938 174.105469 371.875 174.246094 371.640625 174.34375 C 371.402344 174.441406 371.15625 174.488281 370.898438 174.488281 Z M 370.898438 174.488281 " fill-opacity="1" fill-rule="nonzero"/></g><g clip-path="url(#e8909633d0)"><path fill="#38b6ff" d="M 131.234375 204.503906 L 4.066406 204.503906 C 3.808594 204.503906 3.5625 204.453125 3.324219 204.355469 C 3.089844 204.257812 2.878906 204.117188 2.699219 203.9375 C 2.515625 203.753906 2.378906 203.546875 2.28125 203.308594 C 2.183594 203.074219 2.132812 202.828125 2.132812 202.570312 C 2.132812 202.3125 2.183594 202.066406 2.28125 201.832031 C 2.378906 201.59375 2.515625 201.386719 2.699219 201.203125 C 2.878906 201.023438 3.089844 200.882812 3.324219 200.785156 C 3.5625 200.6875 3.808594 200.636719 4.066406 200.636719 L 131.234375 200.636719 C 131.492188 200.636719 131.738281 200.6875 131.976562 200.785156 C 132.210938 200.882812 132.421875 201.023438 132.601562 201.203125 C 132.78125 201.386719 132.921875 201.59375 133.019531 201.832031 C 133.117188 202.066406 133.167969 202.3125 133.167969 202.570312 C 133.167969 202.828125 133.117188 203.074219 133.019531 203.308594 C 132.921875 203.546875 132.78125 203.753906 132.601562 203.9375 C 132.421875 204.117188 132.210938 204.257812 131.976562 204.355469 C 131.738281 204.453125 131.492188 204.503906 131.234375 204.503906 Z M 131.234375 204.503906 " fill-opacity="1" fill-rule="nonzero"/></g></svg>