<svg xmlns="http://www.w3.org/2000/svg" xmlns:xlink="http://www.w3.org/1999/xlink" width="500" zoomAndPan="magnify" viewBox="0 0 375 374.999991" height="500" preserveAspectRatio="xMidYMid meet" version="1.0"><defs><clipPath id="5ab6adb9a7"><path d="M 2 200 L 322 200 L 322 204.375 L 2 204.375 Z M 2 200 " clip-rule="nonzero"/></clipPath><clipPath id="2d1ec33cc9"><path d="M 241 170.625 L 373 170.625 L 373 175 L 241 175 Z M 241 170.625 " clip-rule="nonzero"/></clipPath></defs><g clip-path="url(#5ab6adb9a7)"><path fill="#38b6ff" d="M 4.101562 200.511719 L 319.378906 200.511719 C 319.632812 200.511719 319.878906 200.558594 320.117188 200.65625 C 320.355469 200.753906 320.5625 200.894531 320.742188 201.078125 C 320.925781 201.257812 321.066406 201.464844 321.164062 201.703125 C 321.261719 201.941406 321.308594 202.1875 321.308594 202.441406 C 321.308594 202.699219 321.261719 202.945312 321.164062 203.183594 C 321.066406 203.417969 320.925781 203.628906 320.742188 203.808594 C 320.5625 203.988281 320.355469 204.128906 320.117188 204.226562 C 319.878906 204.324219 319.632812 204.375 319.378906 204.375 L 4.101562 204.375 C 3.84375 204.375 3.597656 204.324219 3.359375 204.226562 C 3.125 204.128906 2.914062 203.988281 2.734375 203.808594 C 2.554688 203.628906 2.414062 203.417969 2.316406 203.183594 C 2.21875 202.945312 2.167969 202.699219 2.167969 202.441406 C 2.167969 202.1875 2.21875 201.941406 2.316406 201.703125 C 2.414062 201.464844 2.554688 201.257812 2.734375 201.078125 C 2.914062 200.894531 3.125 200.753906 3.359375 200.65625 C 3.597656 200.558594 3.84375 200.511719 4.101562 200.511719 Z M 4.101562 200.511719 " fill-opacity="1" fill-rule="nonzero"/></g><g clip-path="url(#2d1ec33cc9)"><path fill="#38b6ff" d="M 243.765625 170.496094 L 370.933594 170.496094 C 371.191406 170.496094 371.4375 170.546875 371.675781 170.644531 C 371.910156 170.742188 372.121094 170.882812 372.300781 171.0625 C 372.484375 171.246094 372.621094 171.453125 372.71875 171.691406 C 372.816406 171.925781 372.867188 172.171875 372.867188 172.429688 C 372.867188 172.6875 372.816406 172.933594 372.71875 173.167969 C 372.621094 173.40625 372.484375 173.613281 372.300781 173.796875 C 372.121094 173.976562 371.910156 174.117188 371.675781 174.214844 C 371.4375 174.3125 371.191406 174.363281 370.933594 174.363281 L 243.765625 174.363281 C 243.507812 174.363281 243.261719 174.3125 243.023438 174.214844 C 242.789062 174.117188 242.578125 173.976562 242.398438 173.796875 C 242.21875 173.613281 242.078125 173.40625 241.980469 173.167969 C 241.882812 172.933594 241.832031 172.6875 241.832031 172.429688 C 241.832031 172.171875 241.882812 171.925781 241.980469 171.691406 C 242.078125 171.453125 242.21875 171.246094 242.398438 171.0625 C 242.578125 170.882812 242.789062 170.742188 243.023438 170.644531 C 243.261719 170.546875 243.507812 170.496094 243.765625 170.496094 Z M 243.765625 170.496094 " fill-opacity="1" fill-rule="nonzero"/></g></svg>