<svg xmlns="http://www.w3.org/2000/svg" xmlns:xlink="http://www.w3.org/1999/xlink" width="500" zoomAndPan="magnify" viewBox="0 0 375 374.999991" height="500" preserveAspectRatio="xMidYMid meet" version="1.0"><defs><clipPath id="a955abbfcf"><path d="M 0 76.171875 L 375 76.171875 L 375 298.921875 L 0 298.921875 Z M 0 76.171875 " clip-rule="nonzero"/></clipPath></defs><g clip-path="url(#a955abbfcf)"><path fill="#ffffff" d="M 48.738281 93.898438 L 326.261719 93.898438 L 326.261719 256.699219 L 48.738281 256.699219 Z M 334.308594 274.402344 C 338.859375 274.402344 342.550781 270.710938 342.550781 266.160156 L 342.550781 84.441406 C 342.550781 79.886719 338.859375 76.199219 334.308594 76.199219 L 40.699219 76.199219 C 36.144531 76.199219 32.457031 79.886719 32.457031 84.441406 L 32.457031 266.160156 C 32.457031 270.710938 36.144531 274.402344 40.699219 274.402344 L 0.847656 274.402344 L 0.847656 291.359375 C 0.847656 295.480469 4.191406 298.824219 8.3125 298.824219 L 366.6875 298.824219 C 370.8125 298.824219 374.152344 295.480469 374.152344 291.359375 L 374.152344 274.402344 L 334.308594 274.402344 " fill-opacity="1" fill-rule="nonzero"/></g></svg>